HIERARCHY
ROOT Hips
{
  OFFSET -0.442746 100.18 1.32669
  CHANNELS 6 Xposition Yposition Zposition Zrotation Xrotation Yrotation
  JOINT Spine
  {
    OFFSET 0 10.1816 0.1315
    CHANNELS 6 Xposition Yposition Zposition Zrotation Xrotation Yrotation
    JOINT Spine1
    {
      OFFSET 0 10.0835 -1.0008
      CHANNELS 6 Xposition Yposition Zposition Zrotation Xrotation Yrotation
      JOINT Spine2
      {
        OFFSET 0 9.1 -1.3734
        CHANNELS 6 Xposition Yposition Zposition Zrotation Xrotation Yrotation
        JOINT Neck
        {
          OFFSET 0 16.6717 -2.5162
          CHANNELS 6 Xposition Yposition Zposition Zrotation Xrotation Yrotation
          JOINT Head
          {
            OFFSET 0 9.6179 1.685
            CHANNELS 6 Xposition Yposition Zposition Zrotation Xrotation Yrotation
            JOINT HeadTop_End
            {
              OFFSET 0 17.8152 2.585
              CHANNELS 6 Xposition Yposition Zposition Zrotation Xrotation Yrotation
              End Site
              {
                OFFSET 0 0 0
              }
            }
            JOINT LeftEye
            {
              OFFSET 3.0676 6.4095 9.2836
              CHANNELS 6 Xposition Yposition Zposition Zrotation Xrotation Yrotation
              End Site
              {
                OFFSET 0 0 0
              }
            }
            JOINT RightEye
            {
              OFFSET -3.0676 6.4095 9.2835
              CHANNELS 6 Xposition Yposition Zposition Zrotation Xrotation Yrotation
              End Site
              {
                OFFSET 0 0 0
              }
            }
          }
        }
        JOINT LeftShoulder
        {
          OFFSET 4.5704 10.946 -2.628
          CHANNELS 6 Xposition Yposition Zposition Zrotation Xrotation Yrotation
          JOINT LeftArm
          {
            OFFSET 10.5924 -0.5246 -2.2321
            CHANNELS 6 Xposition Yposition Zposition Zrotation Xrotation Yrotation
            JOINT LeftForeArm
            {
              OFFSET 27.8415 -0.0001 0
              CHANNELS 6 Xposition Yposition Zposition Zrotation Xrotation Yrotation
              JOINT LeftHand
              {
                OFFSET 28.3288 0 0
                CHANNELS 6 Xposition Yposition Zposition Zrotation Xrotation Yrotation
                JOINT LeftHandThumb1
                {
                  OFFSET 2.4661 -1.575 2.6824
                  CHANNELS 6 Xposition Yposition Zposition Zrotation Xrotation Yrotation
                  JOINT LeftHandThumb2
                  {
                    OFFSET 3.2298 -1.8647 1.8647
                    CHANNELS 6 Xposition Yposition Zposition Zrotation Xrotation Yrotation
                    JOINT LeftHandThumb3
                    {
                      OFFSET 2.6526 -1.5315 1.5315
                      CHANNELS 6 Xposition Yposition Zposition Zrotation Xrotation Yrotation
                      End Site
                      {
                        OFFSET 1.9546 -1.1285 1.1285
                      }
                    }
                  }
                }
                JOINT LeftHandIndex1
                {
                  OFFSET 9.1093 -0.5171 2.2601
                  CHANNELS 6 Xposition Yposition Zposition Zrotation Xrotation Yrotation
                  JOINT LeftHandIndex2
                  {
                    OFFSET 3.6764 0 0
                    CHANNELS 6 Xposition Yposition Zposition Zrotation Xrotation Yrotation
                    JOINT LeftHandIndex3
                    {
                      OFFSET 2.8831 0 0
                      CHANNELS 6 Xposition Yposition Zposition Zrotation Xrotation Yrotation
                      End Site
                      {
                        OFFSET 2.3927 0 0
                      }
                    }
                  }
                }
                JOINT LeftHandMiddle1
                {
                  OFFSET 9.5334 0 0
                  CHANNELS 6 Xposition Yposition Zposition Zrotation Xrotation Yrotation
                  JOINT LeftHandMiddle2
                  {
                    OFFSET 3.6982 0 0
                    CHANNELS 6 Xposition Yposition Zposition Zrotation Xrotation Yrotation
                    JOINT LeftHandMiddle3
                    {
                      OFFSET 2.9509 0 0
                      CHANNELS 6 Xposition Yposition Zposition Zrotation Xrotation Yrotation
                      End Site
                      {
                        OFFSET 2.8339 0 0
                      }
                    }
                  }
                }
                JOINT LeftHandRing1
                {
                  OFFSET 9.1045 -0.0439 -1.8651
                  CHANNELS 6 Xposition Yposition Zposition Zrotation Xrotation Yrotation
                  JOINT LeftHandRing2
                  {
                    OFFSET 3.154 0 0
                    CHANNELS 6 Xposition Yposition Zposition Zrotation Xrotation Yrotation
                    JOINT LeftHandRing3
                    {
                      OFFSET 2.9377 0 0
                      CHANNELS 6 Xposition Yposition Zposition Zrotation Xrotation Yrotation
                      End Site
                      {
                        OFFSET 2.6475 0 0
                      }
                    }
                  }
                }
                JOINT LeftHandPinky1
                {
                  OFFSET 8.0778 -0.4887 -3.8061
                  CHANNELS 6 Xposition Yposition Zposition Zrotation Xrotation Yrotation
                  JOINT LeftHandPinky2
                  {
                    OFFSET 3.6 0 0
                    CHANNELS 6 Xposition Yposition Zposition Zrotation Xrotation Yrotation
                    JOINT LeftHandPinky3
                    {
                      OFFSET 2.1142 0 0
                      CHANNELS 6 Xposition Yposition Zposition Zrotation Xrotation Yrotation
                      End Site
                      {
                        OFFSET 1.9757 0 0
                      }
                    }
                  }
                }
              }
            }
          }
        }
        JOINT RightShoulder
        {
          OFFSET -4.57 10.9462 -2.628
          CHANNELS 6 Xposition Yposition Zposition Zrotation Xrotation Yrotation
          JOINT RightArm
          {
            OFFSET -10.5928 -0.5248 -2.2321
            CHANNELS 6 Xposition Yposition Zposition Zrotation Xrotation Yrotation
            JOINT RightForeArm
            {
              OFFSET -27.8415 0 0
              CHANNELS 6 Xposition Yposition Zposition Zrotation Xrotation Yrotation
              JOINT RightHand
              {
                OFFSET -28.3288 0 0.0001
                CHANNELS 6 Xposition Yposition Zposition Zrotation Xrotation Yrotation
                JOINT RightHandPinky1
                {
                  OFFSET -8.0767 -0.4885 -3.806
                  CHANNELS 6 Xposition Yposition Zposition Zrotation Xrotation Yrotation
                  JOINT RightHandPinky2
                  {
                    OFFSET -3.6 0 0.0001
                    CHANNELS 6 Xposition Yposition Zposition Zrotation Xrotation Yrotation
                    JOINT RightHandPinky3
                    {
                      OFFSET -2.1142 0 0
                      CHANNELS 6 Xposition Yposition Zposition Zrotation Xrotation Yrotation
                      End Site
                      {
                        OFFSET -1.9757 0 0
                      }
                    }
                  }
                }
                JOINT RightHandRing1
                {
                  OFFSET -9.1036 -0.0439 -1.8651
                  CHANNELS 6 Xposition Yposition Zposition Zrotation Xrotation Yrotation
                  JOINT RightHandRing2
                  {
                    OFFSET -3.154 0 0
                    CHANNELS 6 Xposition Yposition Zposition Zrotation Xrotation Yrotation
                    JOINT RightHandRing3
                    {
                      OFFSET -2.9377 0 0
                      CHANNELS 6 Xposition Yposition Zposition Zrotation Xrotation Yrotation
                      End Site
                      {
                        OFFSET -2.6475 0 0
                      }
                    }
                  }
                }
                JOINT RightHandMiddle1
                {
                  OFFSET -9.5325 0 0
                  CHANNELS 6 Xposition Yposition Zposition Zrotation Xrotation Yrotation
                  JOINT RightHandMiddle2
                  {
                    OFFSET -3.6982 0 0
                    CHANNELS 6 Xposition Yposition Zposition Zrotation Xrotation Yrotation
                    JOINT RightHandMiddle3
                    {
                      OFFSET -2.9509 0 0
                      CHANNELS 6 Xposition Yposition Zposition Zrotation Xrotation Yrotation
                      End Site
                      {
                        OFFSET -2.8339 0 0.0001
                      }
                    }
                  }
                }
                JOINT RightHandIndex1
                {
                  OFFSET -9.1083 -0.5168 2.2601
                  CHANNELS 6 Xposition Yposition Zposition Zrotation Xrotation Yrotation
                  JOINT RightHandIndex2
                  {
                    OFFSET -3.6764 0 0
                    CHANNELS 6 Xposition Yposition Zposition Zrotation Xrotation Yrotation
                    JOINT RightHandIndex3
                    {
                      OFFSET -2.8831 0 0
                      CHANNELS 6 Xposition Yposition Zposition Zrotation Xrotation Yrotation
                      End Site
                      {
                        OFFSET -2.3927 0 0
                      }
                    }
                  }
                }
                JOINT RightHandThumb1
                {
                  OFFSET -2.4648 -1.5727 2.6826
                  CHANNELS 6 Xposition Yposition Zposition Zrotation Xrotation Yrotation
                  JOINT RightHandThumb2
                  {
                    OFFSET -3.2298 -1.8647 1.8647
                    CHANNELS 6 Xposition Yposition Zposition Zrotation Xrotation Yrotation
                    JOINT RightHandThumb3
                    {
                      OFFSET -2.6526 -1.5314 1.5314
                      CHANNELS 6 Xposition Yposition Zposition Zrotation Xrotation Yrotation
                      End Site
                      {
                        OFFSET -1.9546 -1.1285 1.1285
                      }
                    }
                  }
                }
              }
            }
          }
        }
      }
    }
  }
  JOINT LeftUpLeg
  {
    OFFSET 8.2078 -6.7517 -1.5996
    CHANNELS 6 Xposition Yposition Zposition Zrotation Xrotation Yrotation
    JOINT LeftLeg
    {
      OFFSET 0 -44.3705 0.2846
      CHANNELS 6 Xposition Yposition Zposition Zrotation Xrotation Yrotation
      JOINT LeftFoot
      {
        OFFSET 0 -44.4279 -2.9822
        CHANNELS 6 Xposition Yposition Zposition Zrotation Xrotation Yrotation
        JOINT LeftToeBase
        {
          OFFSET 0 -8.7287 10.7106
          CHANNELS 6 Xposition Yposition Zposition Zrotation Xrotation Yrotation
          End Site
          {
            OFFSET 0 -0.0007 9.2781
          }
        }
      }
    }
  }
  JOINT RightUpLeg
  {
    OFFSET -8.2078 -6.7517 -1.5996
    CHANNELS 6 Xposition Yposition Zposition Zrotation Xrotation Yrotation
    JOINT RightLeg
    {
      OFFSET 0 -44.3705 0.2862
      CHANNELS 6 Xposition Yposition Zposition Zrotation Xrotation Yrotation
      JOINT RightFoot
      {
        OFFSET 0 -44.4277 -2.9838
        CHANNELS 6 Xposition Yposition Zposition Zrotation Xrotation Yrotation
        JOINT RightToeBase
        {
          OFFSET 0 -8.7287 10.7106
          CHANNELS 6 Xposition Yposition Zposition Zrotation Xrotation Yrotation
          End Site
          {
            OFFSET 0 -0.0007 9.2781
          }
        }
      }
    }
  }
}
MOTION
Frames:	4
Frame Time:	0.0333333
-0.442746 100.18 1.32669 2.06495 -3.98647 -11.9248 0 10.1816 0.1315 -2.34187 7.4513 -2.84499 1.38778e-017 10.0835 -1.0008 -0.381214 0.908253 -0.780784 -2.22045e-016 9.1 -1.3734 -0.383862 0.912573 -0.775091 0 16.6717 -2.5162 0.276369 0.549671 1.88626 -2.22045e-016 9.6179 1.685 4.51697 -12.7854 19.9223 8.88178e-016 17.8152 2.585 -9.93923e-017 1.59028e-015 -1.59028e-015 3.0676 6.4095 9.2836 -9.93923e-017 1.59028e-015 -1.59028e-015 -3.0676 6.4095 9.2835 -9.93923e-017 1.59028e-015 -1.59028e-015 4.5704 10.946 -2.628 -12.8953 -1.29012 8.8905 10.5924 -0.5246 -2.2321 -55.0999 11.3094 5.13821 27.8415 -0.0001 0 -0.000205504 -7.94912e-006 -32.9942 28.3288 7.10543e-015 -3.55271e-015 -4.0856 3.1411 -1.25282 2.4661 -1.575 2.6824 18.6427 -3.76445 3.06564 3.2298 -1.8647 1.8647 -7.23649 12.8393 29.8693 2.6526 -1.5315 1.5315 4.41276 -7.43668 23.3253 9.1093 -0.5171 2.2601 -15.5044 -0.783001 4.14908 3.6764 0 3.55271e-015 -78.5897 -4.6981 5.73943 2.8831 1.42109e-014 3.55271e-015 14.9208 -0.197125 -1.50526 9.5334 -7.10543e-015 -3.55271e-015 -32.4597 -2.12923 6.48447 3.6982 1.77636e-015 -2.66454e-015 -89.3744 -5.79172 5.8552 2.9509 -1.42109e-014 8.88178e-016 14.9208 -0.197123 -1.50526 9.1045 -0.0439 -1.8651 -32.4597 -2.12923 6.48447 3.154 5.32907e-015 8.88178e-016 -89.3744 -5.79172 5.8552 2.9377 1.42109e-014 -3.55271e-015 14.9208 -0.197123 -1.50526 8.0778 -0.4887 -3.8061 -32.4597 -2.12923 6.48447 3.6 -1.77636e-015 1.77636e-015 -89.3744 -5.79172 5.8552 2.1142 0 -3.55271e-015 14.9208 -0.197123 -1.50526 -4.57 10.9462 -2.628 11.25 -0.58647 -8.40153 -10.5928 -0.5248 -2.2321 60.8877 18.1838 6.22216 -27.8415 0 0 -1.12987e-005 -3.25571e-006 23.5386 -28.3288 7.10543e-015 0.0001 -1.40374 1.28158 -2.93017 -8.0767 -0.4885 -3.806 40.4011 -2.55716 -5.94197 -3.6 1.77636e-015 0.0001 71.1007 -3.13983 -4.39424 -2.1142 0 8.88178e-016 -0.00565575 -8.32429e-007 0.000459628 -9.1036 -0.0439 -1.8651 40.4015 -2.55294 -5.94037 -3.154 -3.10862e-015 -8.88178e-016 71.1007 -3.14133 -4.39476 -2.9377 0 8.88178e-016 -0.00565526 -7.46904e-007 0.000458613 -9.5325 0 1.77636e-015 40.4015 -2.55294 -5.94037 -3.6982 1.9984e-015 -8.88178e-016 71.1007 -3.14133 -4.39476 -2.9509 -1.42109e-014 0 -0.00565576 -1.23596e-006 -0.00156235 -9.1083 -0.5168 2.2601 30.3446 -1.74991 -4.64668 -3.6764 1.77636e-015 -1.77636e-015 55.8739 -2.03924 -3.84442 -2.8831 0 4.44089e-016 -0.0150209 -1.99683e-006 0.00121727 -2.4648 -1.5727 2.6826 -8.2927 -5.69986 6.41896 -3.2298 -1.8647 1.8647 0.0497297 21.7025 -40.8684 -2.6526 -1.5314 1.5314 -18.6681 2.10032 -3.20336 8.2078 -6.7517 -1.5996 3.85227 -11.7656 11.5795 0 -44.3705 0.2846 -4.82577 30.5039 -0.877473 1.77636e-015 -44.4279 -2.9822 1.63429 -12.8711 0.123037 1.77636e-015 -8.7287 10.7106 3.47348e-007 -1.61786 -3.57901e-006 -8.2078 -6.7517 -1.5996 -7.06927 -14.9258 -12.017 0 -44.3705 0.2862 3.25246 33.8814 8.11981 8.88178e-016 -44.4277 -2.9838 -5.02307 -13.4138 2.18787 -8.88178e-016 -8.7287 10.7106 0.0387589 -0.957643 0.000559568 
-0.134382 99.9023 1.38726 2.0652 -4.07989 -12.0947 0 10.1816 0.1315 -2.39458 7.66809 -2.88582 -2.77556e-017 10.0835 -1.0008 -0.382381 0.970511 -0.793804 1.11022e-016 9.1 -1.3734 -0.38217 0.975032 -0.786421 0 16.6717 -2.5162 0.318819 0.501554 1.88611 -1.11022e-016 9.6179 1.685 4.80142 -14.8396 20.09 8.88178e-016 17.8152 2.585 -2.98177e-016 1.59028e-015 -7.95139e-016 3.0676 6.4095 9.2836 -2.98177e-016 1.59028e-015 -7.95139e-016 -3.0676 6.4095 9.2835 -2.98177e-016 1.59028e-015 -7.95139e-016 4.5704 10.946 -2.628 -12.9355 -1.31059 8.99019 10.5924 -0.5246 -2.2321 -54.7278 9.23609 4.89511 27.8415 -0.0001 -7.10543e-015 -0.000206364 -6.71322e-006 -34.4991 28.3288 1.42109e-014 -3.55271e-015 -3.49396 3.48027 -1.74663 2.4661 -1.575 2.6824 17.9353 -4.83372 3.19511 3.2298 -1.8647 1.8647 -7.01447 12.3877 30.437 2.6526 -1.5315 1.5315 4.8401 -6.8684 23.268 9.1093 -0.5171 2.2601 -16.7428 -0.867654 4.25785 3.6764 -7.10543e-015 0 -77.6757 -4.60669 5.72016 2.8831 1.42109e-014 -1.77636e-015 12.336 -0.134972 -1.24893 9.5334 0 -3.55271e-015 -33.4194 -2.21653 6.54083 3.6982 -3.55271e-015 0 -88.6359 -5.71639 5.8539 2.9509 -1.42109e-014 8.88178e-016 12.3356 -0.13497 -1.2489 9.1045 -0.0439 -1.8651 -33.4194 -2.21653 6.54083 3.154 1.77636e-015 -1.77636e-015 -88.6359 -5.71639 5.8539 2.9377 0 1.77636e-015 12.3356 -0.13497 -1.2489 8.0778 -0.4887 -3.8061 -33.4179 -2.22902 6.54089 3.6 0 -1.77636e-015 -88.6359 -5.71638 5.85389 2.1142 0 -1.77636e-015 12.3356 -0.134966 -1.24888 -4.57 10.9462 -2.628 11.368 -0.586142 -8.47333 -10.5928 -0.5248 -2.2321 60.0397 17.9322 6.29271 -27.8415 0 0 1.81913e-005 2.96261e-006 25.9684 -28.3288 7.10543e-015 0.0001 -0.798451 0.0653298 -3.50369 -8.0767 -0.4885 -3.806 40.6076 -2.57442 -5.94983 -3.6 4.44089e-015 0.0001 71.1007 -3.13983 -4.39424 -2.1142 -1.42109e-014 1.77636e-015 0.657124 -0.000305345 -0.0532208 -9.1036 -0.0439 -1.8651 40.608 -2.57021 -5.94822 -3.154 2.22045e-016 -8.88178e-016 71.1007 -3.14133 -4.39476 -2.9377 -1.42109e-014 4.44089e-016 0.657124 -0.000304345 -0.0532211 -9.5325 0 3.55271e-015 40.608 -2.57021 -5.94822 -3.6982 -7.10543e-015 1.77636e-015 71.1007 -3.14133 -4.39476 -2.9509 0 -8.88178e-016 0.657123 -0.000304769 -0.0552426 -9.1083 -0.5168 2.2601 30.5511 -1.7656 -4.6571 -3.6764 0 0 55.8739 -2.03924 -3.84442 -2.8831 7.10543e-015 8.88178e-016 0.647757 -0.000298172 -0.0524625 -2.4648 -1.5727 2.6826 -8.14817 -6.01328 6.29413 -3.2298 -1.8647 1.8647 0.0435341 21.4553 -40.9149 -2.6526 -1.5314 1.5314 -18.6349 2.24208 -3.50942 8.2078 -6.7517 -1.5996 3.74688 -12.238 11.6321 0 -44.3705 0.2846 -4.88221 31.6974 -0.624932 -1.77636e-015 -44.4279 -2.9822 1.82772 -13.5269 0.156595 0 -8.7287 10.7106 6.96371e-007 -1.61786 -7.63021e-007 -8.2078 -6.7517 -1.5996 -7.44643 -15.3967 -12.0331 0 -44.3705 0.2862 3.29912 34.9875 7.72234 0 -44.4277 -2.9838 -4.8133 -13.9682 2.73407 0 -8.7287 10.7106 0.0390089 -0.968949 0.000565993 
0.224418 99.6156 1.34446 2.09677 -3.95371 -12.3854 0 10.1816 0.1315 -2.46449 7.83919 -2.89114 0 10.0835 -1.0008 -0.382799 1.02999 -0.796498 0 9.1 -1.3734 -0.375824 1.03437 -0.790133 2.22045e-016 16.6717 -2.5162 0.372183 0.395696 1.90498 -2.77556e-017 9.6179 1.685 5.18409 -17.6914 20.511 4.44089e-016 17.8152 2.585 1.98785e-016 6.36111e-015 -7.95139e-016 3.0676 6.4095 9.2836 1.98785e-016 6.36111e-015 -7.95139e-016 -3.0676 6.4095 9.2835 1.98785e-016 6.36111e-015 -7.95139e-016 4.5704 10.946 -2.628 -12.8301 -1.3229 9.03615 10.5924 -0.5246 -2.2321 -54.1329 5.89792 4.4329 27.8415 -0.0001 7.10543e-015 -0.000206535 -1.89713e-006 -37.4731 28.3288 0 1.06581e-014 -1.23266 4.91808 -1.8253 2.4661 -1.575 2.6824 16.0395 -7.64056 3.48203 3.2298 -1.8647 1.8647 -6.38599 11.2148 31.9376 2.6526 -1.5315 1.5315 5.96194 -5.34951 23.1144 9.1093 -0.5171 2.2601 -20.0161 -1.10254 4.53642 3.6764 0 -3.55271e-015 -75.2597 -4.36662 5.66219 2.8831 0 1.77636e-015 5.50139 -0.026922 -0.560402 9.5334 0 -3.55271e-015 -35.9567 -2.45222 6.6776 3.6982 3.55271e-015 0 -86.6841 -5.51735 5.84571 2.9509 0 0 5.50002 -0.0269116 -0.560254 9.1045 -0.0439 -1.8651 -35.9567 -2.45222 6.6776 3.154 0 5.32907e-015 -86.6841 -5.51735 5.84571 2.9377 0 -8.88178e-016 5.50002 -0.0269116 -0.560254 8.0778 -0.4887 -3.8061 -35.9513 -2.49776 6.67784 3.6 3.55271e-015 -5.32907e-015 -86.6841 -5.51735 5.84572 2.1142 1.42109e-014 8.88178e-016 5.50002 -0.0269125 -0.560266 -4.57 10.9462 -2.628 11.3135 -0.587894 -8.48669 -10.5928 -0.5248 -2.2321 58.6244 16.8788 6.87004 -27.8415 -7.10543e-015 -3.55271e-015 -9.88589e-006 -2.67252e-006 29.7937 -28.3288 1.42109e-014 0.0001 -1.12943 -1.35298 -4.31374 -8.0767 -0.4885 -3.806 41.1847 -2.63453 -5.97134 -3.6 -1.9984e-015 0.0001 71.1007 -3.13983 -4.39424 -2.1142 -2.84217e-014 0 2.51381 -0.00446572 -0.203539 -9.1036 -0.0439 -1.8651 41.1864 -2.61872 -5.96967 -3.154 -3.55271e-015 1.77636e-015 71.1007 -3.14133 -4.39476 -2.9377 1.42109e-014 0 2.51381 -0.00446362 -0.203539 -9.5325 0 0 41.1864 -2.61872 -5.96967 -3.6982 1.33227e-015 3.55271e-015 71.1007 -3.14133 -4.39476 -2.9509 0 1.77636e-015 2.51381 -0.00446494 -0.205561 -9.1083 -0.5168 2.2601 31.1294 -1.80974 -4.68602 -3.6764 0 7.10543e-015 55.8739 -2.03924 -3.84442 -2.8831 0 0 2.50445 -0.00443286 -0.202781 -2.4648 -1.5727 2.6826 -7.74516 -6.89335 5.95047 -3.2298 -1.8647 1.8647 0.0249014 20.7643 -41.0528 -2.6526 -1.5314 1.5314 -18.5383 2.63696 -4.36813 8.2078 -6.7517 -1.5996 3.63255 -13.0097 11.7145 1.77636e-015 -44.3705 0.2846 -4.94221 32.8756 -0.24264 1.77636e-015 -44.4279 -2.9822 2.01763 -14.1075 0.190741 0 -8.7287 10.7106 1.18114e-007 -1.61786 1.79582e-007 -8.2078 -6.7517 -1.5996 -7.86401 -16.185 -12.082 1.77636e-015 -44.3705 0.2862 3.35343 36.0615 6.87491 -8.88178e-016 -44.4277 -2.9838 -4.45088 -14.4312 3.87247 -8.88178e-016 -8.7287 10.7106 0.0435463 -0.976636 0.000662816 
0.652558 99.4043 1.17935 2.29935 -3.50518 -13.25 -8.88178e-016 10.1816 0.1315 -2.65311 7.80909 -2.66973 0 10.0835 -1.0008 -0.376594 1.02381 -0.734291 8.32667e-017 9.1 -1.3734 -0.367864 1.02764 -0.729252 0 16.6717 -2.5162 0.425592 0.282392 1.95567 1.66533e-016 9.6179 1.685 5.7869 -20.9214 21.4036 1.11022e-016 17.8152 2.585 1.98785e-016 -4.77083e-015 7.95139e-016 3.0676 6.4095 9.2836 1.98785e-016 -4.77083e-015 7.95139e-016 -3.0676 6.4095 9.2835 1.98785e-016 -4.77083e-015 7.95139e-016 4.5704 10.946 -2.628 -12.6991 -1.32708 9.04173 10.5924 -0.5246 -2.2321 -53.0971 1.52848 3.76069 27.8415 -0.0001 0 -0.000224611 3.80951e-006 -41.6269 28.3288 0 0 3.45826 9.36782 -2.52335 2.4661 -1.575 2.6824 13.2606 -11.5863 3.75087 3.2298 -1.8647 1.8647 -5.38859 9.60009 34.0779 2.6526 -1.5315 1.5315 7.54129 -3.14406 22.8896 9.1093 -0.5171 2.2601 -24.6799 -1.46398 4.90926 3.6764 0 3.55271e-015 -71.817 -4.02914 5.56221 2.8831 0 0 -4.2409 -0.016 0.43228 9.5334 0 0 -39.5728 -2.7996 6.85418 3.6982 -7.10543e-015 -3.55271e-015 -83.9032 -5.23441 5.82232 2.9509 1.42109e-014 1.77636e-015 -4.24367 -0.0160268 0.432547 9.1045 -0.0439 -1.8651 -39.5728 -2.7996 6.85418 3.154 0 1.77636e-015 -83.9032 -5.23441 5.82232 2.9377 0 -1.77636e-015 -4.24367 -0.0160268 0.432547 8.0778 -0.4887 -3.8061 -39.5617 -2.89219 6.85474 3.6 0 7.10543e-015 -83.9033 -5.23441 5.82232 2.1142 -1.42109e-014 -1.77636e-015 -4.24367 -0.0160253 0.43254 -4.57 10.9462 -2.628 11.0621 -0.601667 -8.48734 -10.5928 -0.5248 -2.2321 56.4903 15.266 8.44926 -27.8415 0 0 1.11293e-005 2.25381e-006 34.4114 -28.3288 0 0.0001 -3.11649 -1.03507 -4.96463 -8.0767 -0.4885 -3.806 42.0747 -2.72771 -6.0031 -3.6 1.77636e-015 0.0001 71.1007 -3.13983 -4.39424 -2.1142 1.42109e-014 1.77636e-015 5.37638 -0.0204123 -0.434823 -9.1036 -0.0439 -1.8651 42.0783 -2.69394 -6.00134 -3.154 -7.10543e-015 0 71.1007 -3.14133 -4.39476 -2.9377 -2.84217e-014 0 5.37638 -0.0204145 -0.434823 -9.5325 0 0 42.0783 -2.69394 -6.00134 -3.6982 -1.77636e-015 -3.55271e-015 71.1007 -3.14133 -4.39476 -2.9509 0 0 5.37638 -0.0204137 -0.436845 -9.1083 -0.5168 2.2601 32.0212 -1.87837 -4.72972 -3.6764 0 -3.55271e-015 55.8739 -2.03924 -3.84442 -2.8831 -7.10543e-015 3.55271e-015 5.36701 -0.0203449 -0.434066 -2.4648 -1.5727 2.6826 -7.12832 -8.25601 5.43793 -3.2298 -1.8647 1.8647 -0.00785019 19.6998 -41.2725 -2.6526 -1.5314 1.5314 -18.3791 3.23854 -5.6964 8.2078 -6.7517 -1.5996 3.31999 -14.0036 11.8302 -1.77636e-015 -44.3705 0.2846 -4.98628 33.6125 0.695914 -1.77636e-015 -44.4279 -2.9822 2.08443 -14.4399 0.206865 0 -8.7287 10.7106 1.38227e-007 -1.61787 -1.36911e-007 -8.2078 -6.7517 -1.5996 -8.42128 -17.3952 -12.1856 1.77636e-015 -44.3705 0.2862 3.40557 36.8513 6.36472 -8.88178e-016 -44.4277 -2.9838 -4.13277 -14.5406 5.26256 1.77636e-015 -8.7287 10.7106 0.0435337 -0.982308 0.000710622 
